<?xml version="1.0" encoding="utf-8"?>
<!-- Generator: Adobe Illustrator 19.2.1, SVG Export Plug-In . SVG Version: 6.00 Build 0)  -->
<!DOCTYPE svg PUBLIC "-//W3C//DTD SVG 1.1//EN" "http://www.w3.org/Graphics/SVG/1.1/DTD/svg11.dtd">
<svg version="1.1" id="Layer_1" xmlns="http://www.w3.org/2000/svg" xmlns:xlink="http://www.w3.org/1999/xlink" x="0px" y="0px"
	 viewBox="0 0 512 512" style="enable-background:new 0 0 512 512;" xml:space="preserve">
<path d="M324.3,38.7l-1.9,2.6c-0.5,0.7-2,0.5-3.4-0.5c-1.3-1-2-2.3-1.6-3l1.2-1.7c-16.5-6.6-36.5-10.8-61-11.1
	c-24.6-0.3-44.8,3.5-61.4,9.8l1.4,2c0.5,0.7-0.2,2-1.6,3c-1.4,1-2.9,1.2-3.3,0.5l-2.1-3c-68.4,29.7-71.2,103.6-71.2,103.6l274.8,2.1
	C394.2,143,391.8,69.7,324.3,38.7z M196.8,98.1c-9.1-0.1-16.5-7.5-16.4-16.7c0.1-9.1,7.5-16.5,16.7-16.4c9.1,0.1,16.5,7.5,16.4,16.7
	C213.4,90.8,206,98.2,196.8,98.1z M317.4,99c-9.1-0.1-16.5-7.5-16.4-16.7c0.1-9.1,7.6-16.5,16.7-16.4c9.1,0.1,16.5,7.5,16.4,16.7
	C334,91.8,326.6,99.1,317.4,99z"/>
<path d="M172.3,0.4c-0.5-0.7-2-0.5-3.3,0.5c-1.4,1-2.1,2.3-1.6,3l23.3,33.4c1.9-0.8,3.7-1.7,5.7-2.5L172.3,0.4z"/>
<path d="M196.1,39.8c1.4-1,2.1-2.3,1.6-3l-1.4-2c-2,0.8-3.8,1.6-5.7,2.5l2.1,3C193.2,41,194.7,40.8,196.1,39.8z"/>
<path d="M348.4,5.3c0.5-0.7-0.2-2-1.6-3c-1.3-1-2.8-1.2-3.3-0.5l-24.8,34.4c2,0.8,3.7,1.7,5.6,2.6L348.4,5.3z"/>
<path d="M319.1,40.8c1.4,1,2.9,1.2,3.4,0.5l1.9-2.6c-1.9-0.9-3.6-1.8-5.6-2.6l-1.2,1.7C317,38.5,317.7,39.8,319.1,40.8z"/>
<path d="M134.9,157.3l-16.8-0.1l-0.9,114.1l0.2,0l-0.9,119.6c-0.1,9.2,7.3,16.6,16.4,16.7l35.4,0.3l-0.6,73.6
	c-0.1,16.3,13,29.6,29.2,29.7c16.3,0.1,29.6-13,29.7-29.2l0.6-73.6l54.8,0.4l-0.6,73.6c-0.1,16.3,13,29.6,29.2,29.7
	c16.3,0.1,29.6-13,29.7-29.2l0.6-73.6l35.4,0.3c9.2,0.1,16.6-7.3,16.7-16.4l0.9-119.6l0.3,0l0.9-114.1l-16.8-0.1L134.9,157.3z"/>
<path d="M439.5,150.2c-16.3-0.1-29.6,13-29.7,29.2l-1,132.4c-0.1,16.3,12.9,29.6,29.2,29.7c16.3,0.1,29.6-13,29.7-29.2l1-132.4
	C468.9,163.6,455.8,150.3,439.5,150.2z"/>
<path d="M73.9,147.4c-16.3-0.1-29.6,13-29.7,29.2l-1,132.4c-0.1,16.3,13,29.6,29.2,29.7c16.3,0.1,29.6-13,29.7-29.2l1-132.4
	C103.3,160.8,90.2,147.5,73.9,147.4z"/>
</svg>
