<?xml version="1.0" encoding="utf-8"?>
<!-- Generator: Adobe Illustrator 19.2.1, SVG Export Plug-In . SVG Version: 6.00 Build 0)  -->
<!DOCTYPE svg PUBLIC "-//W3C//DTD SVG 1.1//EN" "http://www.w3.org/Graphics/SVG/1.1/DTD/svg11.dtd">
<svg version="1.1" id="Layer_1" xmlns="http://www.w3.org/2000/svg" xmlns:xlink="http://www.w3.org/1999/xlink" x="0px" y="0px"
	 viewBox="0 0 512 512" style="enable-background:new 0 0 512 512;" xml:space="preserve">
<style type="text/css">
	.st0{fill-rule:evenodd;clip-rule:evenodd;}
</style>
<path class="st0" d="M277.6,44.6C311.2,0.2,358,0,358,0s7,41.7-26.5,81.8c-35.7,42.9-76.2,35.9-76.2,35.9S247.7,84,277.6,44.6z"/>
<path class="st0" d="M259.6,146.9c17.3,0,49.4-23.8,91.2-23.8c72,0,100.3,51.2,100.3,51.2s-55.4,28.3-55.4,97
	c0,77.5,69,104.2,69,104.2s-48.2,135.7-113.4,135.7c-29.9,0-53.2-20.2-84.7-20.2c-32.1,0-64,20.9-84.7,20.9
	c-59.5,0-134.6-128.7-134.6-232.2c0-101.8,63.6-155.2,123.2-155.2C209.3,124.5,239.4,146.9,259.6,146.9z"/>
</svg>
